<svg id="Layer_1" data-name="Layer 1" xmlns="http://www.w3.org/2000/svg" viewBox="0 0 256 256"><defs><style>.cls-1{fill:#091f42;}.cls-2{fill:#c2c9d1;}.cls-3{fill:#1e58b1;}.cls-4{fill:#3a70c4;}</style></defs><g id="icon-256x256.psd"><rect class="cls-1" width="256" height="256"/><path class="cls-2" d="M76.38,178.68a9.08,9.08,0,0,0,7,3.24c4.57,0,5.88-2.54,5.88-4.44,0-3.14-3-4-6.12-4.85-3.5-1-7.24-2-7.24-6.08,0-3.64,3.27-5.94,7.31-5.94a9.62,9.62,0,0,1,7.55,3.14l-1.27,1.4a8,8,0,0,0-6.38-2.8c-3,0-5.21,1.7-5.21,4.11,0,2.63,2.77,3.4,5.81,4.24,3.58,1,7.55,2.13,7.55,6.68,0,2.84-1.9,6.28-7.92,6.28a10.26,10.26,0,0,1-8.15-3.54Z"/><path class="cls-2" d="M96.23,175.17c0-4.71,3-8.45,7.75-8.45s7.78,3.74,7.78,8.45-3,8.49-7.78,8.49S96.23,179.88,96.23,175.17Zm13.66,0c0-3.57-2.1-6.88-5.91-6.88s-5.88,3.31-5.88,6.88,2.14,6.92,5.88,6.92S109.89,178.78,109.89,175.17Z"/><path class="cls-2" d="M124.58,166.72a6.69,6.69,0,0,1,5.71,2.74l-1.2,1.07a5.15,5.15,0,0,0-4.41-2.24c-3.77,0-6.08,3-6.08,6.88s2.31,6.92,6.08,6.92a5.18,5.18,0,0,0,4.41-2.27l1.2,1.06a6.64,6.64,0,0,1-5.71,2.78c-4.74,0-7.85-3.78-7.85-8.49S119.84,166.72,124.58,166.72Z"/><path class="cls-2" d="M142.06,166.72a6.69,6.69,0,0,1,5.71,2.74l-1.2,1.07a5.16,5.16,0,0,0-4.41-2.24c-3.78,0-6.08,3-6.08,6.88s2.3,6.92,6.08,6.92a5.19,5.19,0,0,0,4.41-2.27l1.2,1.06a6.64,6.64,0,0,1-5.71,2.78c-4.75,0-7.85-3.78-7.85-8.49S137.31,166.72,142.06,166.72Z"/><path class="cls-2" d="M159.47,166.72c4.91,0,7.61,3.91,7.61,8.55v.47H153.59c.17,3.51,2.5,6.41,6.28,6.41a7.15,7.15,0,0,0,5.31-2.23l.9,1.13a8.32,8.32,0,0,1-6.31,2.61c-4.71,0-8.08-3.51-8.08-8.49C151.69,170.5,155,166.72,159.47,166.72Zm-5.88,7.65h11.72c0-2.74-1.83-6.14-5.88-6.14C155.63,168.23,153.72,171.57,153.59,174.37Z"/><path class="cls-2" d="M172.84,167.12h1.74v2.78a6.91,6.91,0,0,1,5.44-3.11v1.9a7.75,7.75,0,0,0-.87-.06,6.14,6.14,0,0,0-4.57,2.87v11.76h-1.74Z"/><path class="cls-2" d="M39.59,206H41.5v20.54H52.28v1.74H39.59Z"/><path class="cls-2" d="M57.11,208.05a1.37,1.37,0,0,1,1.34-1.34,1.34,1.34,0,1,1,0,2.67A1.36,1.36,0,0,1,57.11,208.05Zm.47,4.07h1.74v16.14H57.58Z"/><path class="cls-2" d="M63.94,212.12h1.94l5.85,14.1,5.84-14.1h2l-6.81,16.14h-2Z"/><path class="cls-2" d="M90.36,211.72c4.91,0,7.62,3.91,7.62,8.55v.47H84.48c.17,3.51,2.51,6.41,6.28,6.41a7.15,7.15,0,0,0,5.31-2.23l.9,1.13a8.32,8.32,0,0,1-6.31,2.61c-4.71,0-8.08-3.51-8.08-8.49C82.58,215.5,85.88,211.72,90.36,211.72Zm-5.88,7.65H96.2c0-2.74-1.83-6.14-5.87-6.14C86.52,213.23,84.61,216.57,84.48,219.37Z"/><path class="cls-2" d="M114.51,223.68a9.06,9.06,0,0,0,6.94,3.24c4.58,0,5.88-2.54,5.88-4.44,0-3.14-3-4-6.11-4.85-3.51-1-7.25-2-7.25-6.08,0-3.64,3.28-5.94,7.32-5.94a9.64,9.64,0,0,1,7.55,3.14l-1.27,1.4a8,8,0,0,0-6.38-2.8c-3,0-5.21,1.7-5.21,4.11,0,2.63,2.77,3.4,5.81,4.24,3.57,1,7.55,2.13,7.55,6.68,0,2.84-1.91,6.28-7.92,6.28a10.25,10.25,0,0,1-8.15-3.54Z"/><path class="cls-2" d="M142.21,211.72a6.7,6.7,0,0,1,5.71,2.74l-1.21,1.07a5.14,5.14,0,0,0-4.4-2.24c-3.78,0-6.08,3-6.08,6.88s2.3,6.92,6.08,6.92a5.16,5.16,0,0,0,4.4-2.27l1.21,1.06a6.66,6.66,0,0,1-5.71,2.78c-4.75,0-7.85-3.78-7.85-8.49S137.46,211.72,142.21,211.72Z"/><path class="cls-2" d="M151.85,220.17c0-4.71,3-8.45,7.75-8.45s7.78,3.74,7.78,8.45-3,8.49-7.78,8.49S151.85,224.88,151.85,220.17Zm13.66,0c0-3.57-2.1-6.88-5.91-6.88s-5.88,3.31-5.88,6.88,2.14,6.92,5.88,6.92S165.51,223.78,165.51,220.17Z"/><path class="cls-2" d="M173.2,212.12h1.73v2.78a6.93,6.93,0,0,1,5.45-3.11v1.9a7.93,7.93,0,0,0-.87-.06,6.16,6.16,0,0,0-4.58,2.87v11.76H173.2Z"/><path class="cls-2" d="M191.51,211.72c4.91,0,7.61,3.91,7.61,8.55v.47H185.63c.16,3.51,2.5,6.41,6.28,6.41a7.17,7.17,0,0,0,5.31-2.23l.9,1.13a8.32,8.32,0,0,1-6.31,2.61c-4.71,0-8.09-3.51-8.09-8.49C183.72,215.5,187,211.72,191.51,211.72Zm-5.88,7.65h11.72c0-2.74-1.84-6.14-5.88-6.14C187.67,213.23,185.76,216.57,185.63,219.37Z"/><path class="cls-2" d="M204.52,224.82a6.66,6.66,0,0,0,5.21,2.37c2.7,0,4.31-1.34,4.31-3.21,0-2.07-2.21-2.67-4.54-3.27-2.68-.67-5.65-1.37-5.65-4.51,0-2.47,2.07-4.48,5.74-4.48a7.3,7.3,0,0,1,5.78,2.41l-1,1.2a5.87,5.87,0,0,0-4.81-2.14c-2.5,0-4,1.24-4,2.91,0,1.83,2.07,2.34,4.31,2.9,2.77.71,5.88,1.47,5.88,4.91,0,2.61-2,4.75-6,4.75a7.83,7.83,0,0,1-6.22-2.54Z"/></g><g id="_Group_" data-name="&lt;Group&gt;"><polygon class="cls-3" points="128 96.88 114.13 83 141.88 83 128 96.88"/><polygon class="cls-4" points="128 69.13 141.88 83 114.13 83 128 69.13"/><polyline class="cls-3" points="155.75 83 128 110.75 100.25 83 72.5 83 128 138.5 183.5 83"/><polygon class="cls-4" points="128 55.25 128 27.5 183.5 83 155.75 83 128 55.25"/></g></svg>